<svg width="80" height="80" viewBox="0 0 80 80" fill="none" xmlns="http://www.w3.org/2000/svg">
<path d="M80 40C80 62.0914 62.0914 80 40 80C17.9086 80 0 62.0914 0 40C0 17.9086 17.9086 0 40 0C62.0914 0 80 17.9086 80 40Z" fill="#1D2633"></path>
<path d="M69.7136 50.2133C71.0644 50.2133 72.0252 51.5261 71.5172 52.7777C66.4666 65.2233 54.2582 74 39.9999 74C25.7417 74 13.5333 65.2233 8.48263 52.7777C7.97466 51.5261 8.93548 50.2133 10.2863 50.2133H69.7136Z" fill="#EDEBDE"></path>
<path d="M71.5172 27.2222C72.0252 28.4739 71.0644 29.7867 69.7136 29.7867H10.2863C8.93549 29.7867 7.97468 28.4739 8.48264 27.2222C13.5333 14.7767 25.7417 6 39.9999 6C54.2582 6 66.4665 14.7767 71.5172 27.2222Z" fill="#EDEBDE"></path>
<path d="M33.9999 6.52774C35.9476 6.18095 37.9526 6 40 6C42.0473 6 44.0523 6.18095 45.9999 6.52773V29.7867H33.9999V6.52774Z" fill="#AC2828"></path>
<path d="M46.0004 50.2133H33.9993C33.9741 55.4312 33.0234 60.6038 31.1909 65.4906L28.7185 72.0836C32.2486 73.3249 36.0454 74 39.9999 74C43.9543 74 47.7511 73.3249 51.2812 72.0836L48.8088 65.4906C46.9763 60.6038 46.0256 55.4312 46.0004 50.2133Z" fill="#AC2828"></path>
<path d="M46 6.52771C50.3408 7.3006 54.3967 8.89722 58 11.1502V29.7867H46V6.52771Z" fill="#306A9F"></path>
<path d="M51.2813 72.0836C56.7387 70.1647 61.5589 66.8928 65.3391 62.6704L64.7492 62.295C60.6056 59.6581 58.073 55.1147 58.0015 50.2133H46.0005C46.0257 55.4312 46.9764 60.6038 48.809 65.4906L51.2813 72.0836Z" fill="#306A9F"></path>
<path d="M21.9999 11.1502C25.6032 8.89723 29.659 7.3006 33.9999 6.52771V29.7867H21.9999V11.1502Z" fill="#DEB038"></path>
<path d="M21.9983 50.2133H33.9993C33.9742 55.4089 33.0315 60.5596 31.2143 65.428L28.7185 72.0836C23.261 70.1647 18.4409 66.8928 14.6606 62.6704L15.2505 62.295C19.3941 59.6581 21.9268 55.1147 21.9983 50.2133Z" fill="#DEB038"></path>
</svg>